<?xml version="1.0" encoding="utf-8"?>
<!-- Generator: Adobe Illustrator 18.1.1, SVG Export Plug-In . SVG Version: 6.00 Build 0)  -->
<svg version="1.1" id="Layer_1" xmlns="http://www.w3.org/2000/svg" xmlns:xlink="http://www.w3.org/1999/xlink" x="0px" y="0px"
	 viewBox="0 0 146.9 41.4" enable-background="new 0 0 146.9 41.4" xml:space="preserve">
<path fill-rule="evenodd" clip-rule="evenodd" fill="#DBD9D6" d="M84,32.9c-0.7,1.6-1.3,2.9-1.8,4.2c-0.4,1-0.9,2.1-1.3,3.1
	c-0.2,0.6-0.6,1.1-1.4,1c-0.1,0-0.1,0-0.2,0c-1.9,0-1.9,0.1-2.8-1.7c-1.8-3.7-3.6-7.3-5.4-11c-0.2-0.5-0.5-1-0.8-1.5
	c-0.4-0.5-0.8-0.9-1.6-0.9c-0.4,0-1-0.1-1-0.3c-0.1-0.5-0.1-1.1,0-1.7c0-0.1,0.4-0.3,0.6-0.3c2.7,0,5.4,0,8.1,0
	c0.5,0,0.7,0.2,0.7,0.7c0,0.4,0.1,0.9-0.1,1.3c-0.1,0.2-0.6,0.2-1,0.4c-0.8,0.3-1,0.6-0.6,1.4c1.2,2.5,2.4,4.9,3.8,7.6
	c0.3-0.4,0.5-0.7,0.7-1.1c0.6-1.2,1.2-2.5,1.7-3.8c0.8-1.7,0.2-3.4-1.6-4.2c-0.4-0.2-0.7-0.2-0.7-0.7c0-0.5,0.1-1,0.2-1.5
	c0-0.1,0.3-0.2,0.5-0.2c2.6,0,5.3,0,7.9,0c0.5,0,0.8,0.2,0.8,0.8c0.1,1.2,0,1.3-1.2,1.5c-1,0.2-1.3,0.6-1.1,1.6c0,0.1,0,0.1,0,0.2
	c1.1,2.4,2.2,4.8,3.4,7.4c1.3-2.7,2.5-5.1,3.7-7.6c0.5-1,0-1.5-1.1-1.6c-0.1,0-0.3,0-0.4,0c-1.6,0.1-1.3-0.3-1.3-1.6
	c0-0.6,0.3-0.7,0.8-0.7c2.5,0,4.9,0,7.4,0c0.5,0,0.9,0.2,0.8,0.7c-0.1,0.5,0.4,1.4-0.6,1.5c-1.3,0.1-1.8,0.9-2.3,1.9
	c-1.9,4-3.7,7.9-5.6,11.9c-0.2,0.5-0.6,1.1-1,1.3c-0.8,0.2-1.6,0.1-2.4,0c-0.3,0-0.5-0.5-0.6-0.8c-0.9-1.8-1.7-3.6-2.5-5.5
	C84.7,34.3,84.4,33.7,84,32.9z"/>
<path fill-rule="evenodd" clip-rule="evenodd" fill="#DBD9D6" d="M16.7,31.9c0.5,0.2,0.9,0.4,1.4,0.5c1.6,0.7,2.6,1.8,2.7,3.5
	c0.1,1.9-0.8,3.2-2.4,4.1c-1.2,0.7-2.4,1-3.8,1c-4.5,0-8.9,0-13.4,0c-0.4,0-1-0.2-1.1-0.4c-0.1-0.5-0.1-1.1,0.1-1.6
	c0-0.1,0.5-0.2,0.8-0.3c1.8-0.2,2-0.4,2-2.2c0-2.8,0-5.7,0-8.5c0-1.7-0.3-1.9-1.9-2.1c-0.3,0-0.9-0.1-1-0.3c-0.1-0.5-0.1-1.1,0-1.7
	c0-0.1,0.4-0.3,0.6-0.3c0.7,0,1.4,0,2.1,0c3.6,0,7.2,0,10.8,0c0.9,0,1.9,0.2,2.8,0.4c1.7,0.5,3,1.5,3.2,3.3c0.3,1.9-0.6,3.3-2.3,4.1
	C17.1,31.7,16.9,31.8,16.7,31.9z M10.7,33.6C10.7,33.6,10.7,33.6,10.7,33.6c-0.7,0-1.5,0-2.2,0c-0.8-0.1-1,0.3-0.9,1c0,1,0,2,0,3
	c0,0.6,0.2,0.9,0.9,0.9c1.3,0,2.5,0,3.8,0c0.6,0,1.2-0.2,1.8-0.3c1.1-0.3,1.5-1,1.5-2.1c0-1.3-0.8-2.2-2.3-2.4
	C12.3,33.6,11.5,33.6,10.7,33.6z M10.1,26.5c-0.6,0-1.3,0-1.9,0c-0.5,0-0.7,0.2-0.7,0.7c0,1.1,0,2.1,0,3.2c0,0.2,0.2,0.5,0.3,0.6
	c1.9,0,3.8,0.2,5.6-0.4c0.8-0.3,1.3-1.2,1.2-1.9c-0.1-0.9-0.5-1.6-1.4-1.7C12.2,26.6,10.1,26.4,10.1,26.5z"/>
<path fill-rule="evenodd" clip-rule="evenodd" fill="#DBD9D6" d="M132.4,23.8c2,0,3.9-0.1,5.9,0c1,0,2,0.2,2.9,0.5
	c2.7,0.9,3.9,3.2,3.1,6c-0.4,1.4-1.4,2.3-2.7,2.9c-1,0.5-1,0.6-0.5,1.5c0.9,1.8,2.1,3.4,4.3,3.9c0.8,0.2,1.3,1.5,0.9,2.3
	c-0.1,0.2-0.5,0.3-0.8,0.3c-4,0-7-1.6-8.9-5.1c-1-2-1-2-3.3-1.8c-0.7,0-0.9,0.3-0.9,0.9c0,0.6,0,1.1,0,1.7c0,1.5,0.3,1.8,1.7,2
	c1.3,0.2,1.4,0.3,1.3,1.6c0,0.6-0.3,0.7-0.8,0.7c-1.7,0-3.4,0-5.1,0c-1.2,0-2.4,0-3.6,0c-0.7,0-1.1-0.1-1-0.9c0-1.2,0-1.3,0.9-1.4
	c1.9-0.2,2-0.4,2-2.2c0-2.9,0-5.8,0-8.7c0-1.5-0.3-1.8-1.9-2c-0.3,0-0.9-0.1-1-0.3c-0.1-0.5-0.2-1.1,0-1.7c0-0.2,0.6-0.3,0.9-0.3
	C128,23.8,130.2,23.8,132.4,23.8C132.4,23.8,132.4,23.8,132.4,23.8z M135,31.4c0,0,2,0,3-0.3c1.2-0.4,1.5-1.1,1.5-2.3
	c0-1.1-0.4-1.6-1.6-2c-0.5-0.2-1.1-0.3-1.6-0.3c-5,0.1-3.8-1.1-3.9,4c0,0.6,0.2,1,0.8,0.9C133.8,31.4,134.4,31.4,135,31.4z"/>
<path fill-rule="evenodd" clip-rule="evenodd" fill="#DBD9D6" d="M30.1,23.8c2,0,3.9-0.1,5.9,0c1,0,2,0.2,2.9,0.5
	c2.7,0.9,3.9,3.2,3.1,6c-0.4,1.4-1.4,2.3-2.7,2.9c-1,0.5-1,0.6-0.5,1.5c0.9,1.8,2.1,3.4,4.3,3.9c0.8,0.2,1.3,1.5,0.9,2.3
	c-0.1,0.2-0.5,0.3-0.8,0.3c-4,0-7-1.6-8.9-5.1c-1-2-1-2-3.3-1.8c-0.7,0-0.9,0.3-0.9,0.9c0,0.6,0,1.1,0,1.7c0,1.5,0.3,1.8,1.7,2
	c1.3,0.2,1.4,0.3,1.3,1.6c0,0.6-0.3,0.7-0.8,0.7c-1.7,0-3.4,0-5.1,0c-1.2,0-2.4,0-3.6,0c-0.7,0-1.1-0.1-1-0.9c0-1.2,0-1.3,0.9-1.4
	c1.8-0.2,2-0.4,2-2.2c0-2.9,0-5.8,0-8.7c0-1.5-0.3-1.8-1.9-2c-0.4,0-0.9-0.1-1-0.3c-0.1-0.5-0.2-1.1,0-1.7c0-0.2,0.6-0.3,0.9-0.3
	C25.7,23.8,27.9,23.8,30.1,23.8C30.1,23.8,30.1,23.8,30.1,23.8z M32.8,31.4c0,0,2,0,3-0.3c1.2-0.4,1.5-1.1,1.5-2.3
	c0-1.1-0.4-1.6-1.6-2c-0.5-0.2-1.1-0.3-1.6-0.3c-5,0.1-3.8-1.1-3.9,4c0,0.6,0.2,1,0.8,0.9C31.5,31.4,32.1,31.4,32.8,31.4z"/>
<path fill-rule="evenodd" clip-rule="evenodd" fill="#DBD9D6" d="M64.4,33.7c0.8,0.2,1.8,0.1,2.2,0.6c0.3,0.4,0,1.4-0.1,2.1
	c-0.1,1.2,0,2.4-0.1,3.6c-0.1,1.1-0.2,1.2-1.3,1.2c-2.1,0-4.3,0-6.4,0c-3.7,0-7.4,0-11.2,0c-0.3,0-1-0.1-1-0.3
	c-0.1-0.6,0-1.2,0.1-1.8c0-0.1,0.5-0.2,0.8-0.2c1.7-0.2,1.9-0.4,1.9-2.1c0-2.8,0-5.7,0-8.5c0-1.8-0.2-2-2-2.2
	c-0.3,0-0.9-0.2-0.9-0.4c-0.1-0.5,0-1.1,0.1-1.7c0-0.1,0.4-0.2,0.6-0.2c1.3,0,2.6,0,4,0c4.4,0,8.8,0,13.2,0c1.4,0,1.5,0.1,1.6,1.5
	c0.1,1.3,0.3,2.6,0.4,3.9c0.1,1,0,1-1,1.1c-0.7,0.1-1.4,0.1-1.6-0.9c-0.5-2-2.1-2.7-4-2.9c-1.7-0.1-3.4,0-5.1,0
	c-0.5,0-0.8,0.2-0.8,0.8c0,0.9,0,1.9,0,2.8c0,0.2,0.2,0.6,0.3,0.6c1,0,2,0,3-0.2c0.2,0,0.3-0.8,0.5-1.3c0.1-0.3,0.2-1,0.3-1
	c0.7-0.1,1.4,0,2,0c0.1,0,0.2,0.3,0.2,0.5c0,2.3,0,4.7,0,7c0,0.2-0.3,0.5-0.5,0.6c-0.4,0.1-0.9,0-1.3,0c-0.5,0-0.6-0.3-0.6-0.7
	c0-0.3,0-0.6,0-0.9c0-0.6-0.4-0.9-1-1c-0.9,0-1.7,0.1-2.6,0.1c-0.1,0.7-0.2,1.5-0.2,2.2c0,0.8-0.2,1.9,0.2,2.3
	c0.4,0.4,1.5,0.2,2.3,0.2c1.4,0,2.8-0.2,4.1-0.3c1.7-0.1,2.7-1.2,3.2-2.8C64.1,34.9,64.2,34.4,64.4,33.7z"/>
<path fill-rule="evenodd" clip-rule="evenodd" fill="#DBD9D6" d="M119.4,33.7c0.4,0.1,0.8,0.2,1.1,0.2c1.4,0.2,1.3,0.2,1.2,1.5
	c-0.1,1.4-0.2,2.9-0.3,4.3c-0.1,1.4-0.1,1.5-1.6,1.5c-5.7,0-11.3,0-17,0c-0.4,0-1,0.1-1.1-0.1c-0.2-0.5-0.2-1.1-0.3-1.6
	c0-0.5,0.3-0.6,0.8-0.6c0.1,0,0.3,0,0.4,0c1.5-0.2,1.8-0.4,1.8-2c0-1.4,0-2.8,0-4.2c0-1.5,0-3,0-4.5c0-1.7-0.2-1.9-1.9-2.1
	c-1-0.1-1-0.1-1.1-1.1c0-1.2,0-1.2,1.1-1.2c5.7,0,11.5,0,17.2,0c0.8,0,1.2,0.2,1.3,1c0.1,1.4,0.3,2.7,0.4,4.1
	c0.1,1.3,0.1,1.2-1.1,1.3c-0.8,0.1-1.3-0.1-1.5-1c-0.5-1.9-2-2.6-3.7-2.7c-1.8-0.2-3.6,0-5.5-0.1c-0.5,0-0.7,0.2-0.7,0.7
	c0,0.4,0,0.9,0,1.3c0.1,2.5-0.5,2.3,2.4,2.2c1.2,0,1.3-0.2,1.4-1.5c0-0.4,0.1-1,0.2-1c0.7-0.1,1.4-0.1,2-0.1c0.1,0,0.2,0.3,0.2,0.5
	c0,2.4,0,4.8,0,7.2c0,0.2-0.3,0.4-0.5,0.5c-0.4,0.1-0.7,0-1.1,0c-0.6,0-1-0.1-0.9-0.8c0-0.3,0.1-0.7,0-0.9c-0.1-0.3-0.4-0.8-0.7-0.8
	c-0.9-0.1-1.8-0.1-2.6,0c-0.1,0-0.4,0.3-0.4,0.5c0,1.3,0,2.5,0,3.8c0,0.2,0.4,0.5,0.6,0.5c2.2,0,4.4,0.2,6.6-0.3
	c1.3-0.3,2.2-1.2,2.6-2.5C119.1,35.1,119.2,34.4,119.4,33.7z"/>
<path fill-rule="evenodd" clip-rule="evenodd" fill="#DBD9D6" d="M80.5,8.4c0.5,0.2,0.9,0.3,1.3,0.5c1.6,0.6,2.6,1.7,2.7,3.5
	c0.1,1.9-0.7,3.2-2.3,4.2c-1.2,0.7-2.6,1-4,1.1c-4.4,0-8.8,0-13.2,0c-0.4,0-1.1-0.1-1.1-0.3c-0.1-0.5-0.1-1.1,0-1.7
	c0-0.1,0.5-0.3,0.8-0.3c1.9-0.2,2-0.4,2-2.2c0-2.9,0-5.8,0-8.7c0-1.5-0.3-1.8-1.9-2c-0.4,0-0.9-0.1-1-0.3c-0.1-0.5-0.1-1.1-0.1-1.7
	c0-0.1,0.3-0.3,0.4-0.3c0.3,0,0.6,0,0.9,0c4,0,8.1,0,12.1,0c0.9,0,1.9,0.2,2.8,0.4c1.7,0.5,3,1.5,3.3,3.3c0.3,1.9-0.6,3.3-2.3,4.1
	C80.9,8.2,80.7,8.3,80.5,8.4z M74,15c0,0,2.5-0.1,3.7-0.4c1.1-0.3,1.5-1,1.6-2.1c0.1-1.6-1.1-2.2-2.3-2.4c-0.7-0.1-1.5-0.1-2.3,0
	c-1.1,0-2.2,0.2-3.3,0.2c0,1.1-0.1,2.1-0.1,3.2c0,1.6,0,1.5,1.4,1.5C73.1,15,73.5,15,74,15z M73.8,3c-0.6,0-1.2,0-1.9,0
	c-0.4,0-0.7,0.2-0.7,0.6c0,1.1,0,2.1,0,3.2c0,0.2,0.3,0.6,0.5,0.6c1.7-0.1,3.4-0.1,5-0.3c0.9-0.1,1.5-1,1.6-1.9
	c0-0.9-0.4-1.6-1.4-1.9C76,3,73.9,2.9,73.8,3z"/>
<path fill-rule="evenodd" clip-rule="evenodd" fill="#DBD9D6" d="M25,4.8c0,3,0,6.2,0,9.2c0,1,0.4,1.2,1.6,1.4
	c0.3,0.1,0.9,0.2,0.9,0.4c0.1,0.5,0.1,1.1,0,1.7c0,0.1-0.4,0.3-0.6,0.3c-2.4,0-4.8,0-7.2,0c-0.6,0-0.7-0.3-0.7-0.8
	c-0.1-1.3,0-1.4,1.2-1.5c1.4-0.1,1.7-0.4,1.7-1.9c0-3,0-6,0-9.1c0-1.4-0.3-1.7-1.8-1.8c-0.4,0-1-0.1-1-0.2C19,1.8,19,1.2,19,0.7
	c0-0.1,0.3-0.3,0.5-0.4c0.4-0.1,0.8,0,1.1,0c1.6,0,3.3,0.1,4.9,0c1,0,1.8,0.3,2.5,1c2.7,2.8,5.4,5.5,8.1,8.2
	c0.4,0.4,0.9,0.9,1.6,1.5c0-2.5,0-4.7,0-7c0-1-0.5-1.3-1.6-1.5c-0.3-0.1-0.9-0.2-0.9-0.3c-0.1-0.5-0.1-1.1,0-1.7
	c0-0.1,0.4-0.3,0.6-0.3c2.3,0,4.7,0,7,0c0.5,0,0.7,0.2,0.7,0.7c0,0.3,0,0.6,0,0.9c0,0.5-0.3,0.7-0.7,0.6c-0.3,0-0.5,0-0.8,0
	c-1,0.1-1.2,0.3-1.3,1.3c-0.1,1.4,0,2.8,0,4.2c0,2.9,0,5.8,0,8.7c0,0.8-0.3,0.9-1,1c-1.4,0.1-2.5-0.2-3.5-1.3
	c-3.3-3.5-6.7-7-10.1-10.5C25.9,5.6,25.1,4.7,25,4.8z"/>
<path fill-rule="evenodd" clip-rule="evenodd" fill="#DBD9D6" d="M122.6,4.6c0,2.6,0,5.1,0,7.6c0,0.2-0.3,0.5-0.6,0.5
	c-0.3,0.1-0.6,0-0.9,0c-0.7,0.1-1-0.2-1-1c-0.1-1.6-0.1-1.7-1.8-1.7c-2.4,0-2-0.2-2,2c0,0.9,0.1,1.8,0.2,2.8c0.9,0,1.7,0.1,2.6,0.1
	c1.2,0,2.4-0.2,3.6-0.2c2.1-0.1,3.1-1.4,3.7-3.2c0.1-0.4,0.2-0.8,0.3-1.2c0.2,0,0.3-0.1,0.4-0.1c0.7,0.2,1.6,0.1,1.9,0.6
	c0.3,0.4-0.1,1.3-0.1,2c-0.1,1.2-0.1,2.4-0.1,3.6c-0.1,1.2-0.2,1.3-1.3,1.3c-5.9,0-11.7,0-17.6,0c-0.3,0-0.9-0.2-1-0.3
	c-0.1-0.6,0-1.2,0.2-1.8c0-0.1,0.6-0.1,0.9-0.2c1.6-0.2,1.9-0.4,1.9-2c0-3,0-6,0-9.1c0-1.3-0.4-1.6-1.7-1.8
	c-1.3-0.1-1.4-0.3-1.3-1.6c0-0.5,0.2-0.7,0.7-0.7c0.3,0,0.6,0,0.9,0c5.3,0,10.7,0,16.1,0c1.8,0,1.8,0,1.9,1.9
	c0.1,1.2,0.2,2.5,0.4,3.7c0.1,0.5-0.2,0.8-0.7,0.8c-1.2,0-1.6,0.3-2-1.1c-0.5-1.8-2.1-2.5-3.8-2.6c-1.8-0.1-3.5,0-5.3,0
	c-0.6,0-0.8,0.3-0.7,0.8c0,0.5,0,1,0,1.5c0.1,0.6-0.4,1.6,0.4,1.8c0.9,0.2,2,0,3-0.2c0.2,0,0.3-0.7,0.4-1.2c0.2-1.2,0.1-1.2,1.3-1.2
	C121.7,4.6,122.1,4.6,122.6,4.6z"/>
<path fill-rule="evenodd" clip-rule="evenodd" fill="#DBD9D6" d="M53.5,0c2.5,0,4.8,0.6,6.6,2.4c2.4,2.4,1.8,8.3-1.5,9.8
	c-3.3,1.8-7.1,1.8-10.7-0.1c-2.1-1.1-3.1-4-2.8-6.2C45.7,2,49.1,0.2,52.3,0C52.7,0,53.2,0,53.5,0z M49.7,6.7c0,0.3,0,0.7,0.1,1
	c0.2,1.5,0.9,2.5,2.3,2.9c0.5,0.2,1.1,0.1,1.7,0.2c1.4,0.1,3-1,3.2-3c0.1-0.6,0.1-1.3,0-1.9c-0.1-1.4-0.8-2.5-2.1-3
	c-1.4-0.5-2.8-0.5-4,0.5C49.9,4.3,49.6,5.4,49.7,6.7z"/>
<path fill-rule="evenodd" clip-rule="evenodd" fill="#DBD9D6" d="M96.2,17.7c-3,0-5.9,0-8.9,0c-0.8,0-1-0.3-0.9-1
	c0-1.1,0-1.2,0.8-1.3c0.2,0,0.5,0,0.8,0c0.9-0.1,1.4-0.6,1.4-1.5c0-3.3,0-6.5,0-9.8c0-0.9-0.5-1.3-1.4-1.5c-0.3,0-0.5,0-0.8,0
	c-0.7,0.1-0.9-0.3-0.8-0.9c0-0.1,0-0.3,0-0.4c-0.1-0.7,0.2-1,1-1c2.9,0,5.8,0,8.7,0c0.6,0,0.9,0.2,0.9,0.9c0,1.3,0.1,1.3-1.3,1.4
	C94.4,2.7,94,3,94,4.3c0,3.3,0,6.5,0,9.8c0,0.5,0,0.9,0.7,0.9c1.8-0.1,3.6-0.1,5.5-0.2c2-0.1,3.1-1.3,3.5-3.1
	c0.1-0.2,0.2-0.5,0.2-0.7c0.3-1.3,0.5-1.4,1.7-1.1c0.6,0.1,1,0.4,0.9,1.2c-0.2,2-0.3,4-0.4,6c0,0.6-0.5,0.6-0.9,0.6
	C102.2,17.7,99.2,17.7,96.2,17.7z"/>
<path fill="#C5A47E" d="M60.8,17c0,0.3-0.3,0.6-0.6,0.6H46.6c-0.3,0-0.6-0.3-0.6-0.6v-0.6c0-0.3,0.3-0.6,0.6-0.6h13.7
	c0.3,0,0.6,0.3,0.6,0.6V17z"/>
</svg>
